<svg xmlns="http://www.w3.org/2000/svg" width="419.26" height="440.547"><defs><filter id="a" width="1.147" height="1.14" x="-.074" y="-.07" color-interpolation-filters="sRGB"><feGaussianBlur stdDeviation="9.871"/></filter></defs><g style="opacity:.2;display:inline"><path d="M488.393 470.404H660.25l11.106-70.194-55.288-44.767-127.675 114.961 85.928-148.816-55.24-44.766-66.394 25.525 35.706 168.057-85.928-148.816-66.395 25.525-11.107 70.195 163.43 53.096H316.585l-11.106 70.194 55.24 44.767 127.674-114.961-85.928 148.816 55.288 44.766 66.395-25.525-35.755-168.057 85.928 148.816 66.444-25.525 11.058-70.195-163.43-53.096z" style="fill:#000;stroke:#000;stroke-width:6;stroke-linecap:butt;stroke-linejoin:miter;stroke-opacity:1;filter:url(#a)" transform="translate(-278.787 -250.13)"/></g><g style="display:inline"><path d="M480.38 456.85h171.856l11.107-70.194-55.289-44.766L480.38 456.85l85.929-148.815-55.24-44.767-66.395 25.526L480.38 456.85l-85.928-148.816-66.395 25.525-11.106 70.194 163.43 53.097H308.57l-11.106 70.194 55.24 44.767L480.379 456.85l-85.928 148.816 55.288 44.766 66.395-25.525-35.755-168.057 85.929 148.816 66.443-25.525 11.058-70.195-163.43-53.096z" style="fill:#fff;fill-opacity:1;stroke:#0171ff;stroke-width:12;stroke-linejoin:miter;stroke-miterlimit:4;stroke-opacity:1;stroke-dasharray:none" transform="translate(-278.787 -250.13)"/></g></svg>